<svg width="167" height="22" viewBox="0 0 167 22" fill="none" xmlns="http://www.w3.org/2000/svg">
<path d="M11.5 0L14.0819 7.60081H22.4371L15.6776 12.2984L18.2595 19.8992L11.5 15.2016L4.74047 19.8992L7.32238 12.2984L0.56285 7.60081H8.91809L11.5 0Z" fill="#E7B725"/>
<path d="M47.5 0L50.0819 7.60081H58.4371L51.6776 12.2984L54.2595 19.8992L47.5 15.2016L40.7405 19.8992L43.3224 12.2984L36.5628 7.60081H44.9181L47.5 0Z" fill="#E7B725"/>
<path d="M83.5 0L86.0819 7.60081H94.4371L87.6776 12.2984L90.2595 19.8992L83.5 15.2016L76.7405 19.8992L79.3224 12.2984L72.5628 7.60081H80.9181L83.5 0Z" fill="#E7B725"/>
<path d="M119.5 0L122.082 7.60081H130.437L123.678 12.2984L126.26 19.8992L119.5 15.2016L112.74 19.8992L115.322 12.2984L108.563 7.60081H116.918L119.5 0Z" fill="white"/>
<path d="M155.5 0L158.082 7.60081H166.437L159.678 12.2984L162.26 19.8992L155.5 15.2016L148.74 19.8992L151.322 12.2984L144.563 7.60081H152.918L155.5 0Z" fill="white"/>
</svg>
